# xmcd CD database file
#
# Track frame offsets:
#	150
#	15988
#	36952
#	52428
#	71704
#	91361
#	104375
#	126285
#	141769
#	157445
#	172967
#	188955
#	204513
#
# Disc length: 2956 seconds
#
# Revision: 0
# Processed by: cddbd v1.5.2PL0 Copyright (c) Steve Scherf et al.
# Submitted via: CDex 1.51
#
DISCID=c20b8a0d
DTITLE=Joyce and Tutty Moreno - Samba-Jazz and Outras Bossas
DYEAR=2007
DGENRE=Jazz
TTITLE0=Penalty
TTITLE1=April Child
TTITLE2=Embalo
TTITLE3=Compositor
TTITLE4=Shangri-la
TTITLE5=Devagar Com A Louca
TTITLE6=Feijao Com Arroz
TTITLE7=Berimbau
TTITLE8=Garoto
TTITLE9=Sabe Quem
TTITLE10=Tema Pro Baden
TTITLE11=Bodas De Vinil
TTITLE12=Magica
EXTD=YEAR: 2007
EXTT0=
EXTT1=
EXTT2=
EXTT3=
EXTT4=
EXTT5=
EXTT6=
EXTT7=
EXTT8=
EXTT9=
EXTT10=
EXTT11=
EXTT12=
PLAYORDER=
